<?xml version="1.0" encoding="UTF-8" standalone="no"?>
<!-- Created with Inkscape (http://www.inkscape.org/) -->

<svg
   xmlns:dc="http://purl.org/dc/elements/1.1/"
   xmlns:cc="http://creativecommons.org/ns#"
   xmlns:rdf="http://www.w3.org/1999/02/22-rdf-syntax-ns#"
   xmlns:svg="http://www.w3.org/2000/svg"
   xmlns="http://www.w3.org/2000/svg"
   xmlns:sodipodi="http://sodipodi.sourceforge.net/DTD/sodipodi-0.dtd"
   xmlns:inkscape="http://www.inkscape.org/namespaces/inkscape"
   width="153.93715mm"
   height="150.75462mm"
   viewBox="0 0 545.44659 534.16992"
   id="svg4661"
   version="1.1"
   inkscape:version="0.91 r13725"
   sodipodi:docname="logo_color.svg">
  <defs
     id="defs4663" />
  <sodipodi:namedview
     id="base"
     pagecolor="#ffffff"
     bordercolor="#666666"
     borderopacity="1.0"
     inkscape:pageopacity="0.0"
     inkscape:pageshadow="2"
     inkscape:zoom="1"
     inkscape:cx="-13.087136"
     inkscape:cy="206.08615"
     inkscape:document-units="px"
     inkscape:current-layer="layer4"
     showgrid="false"
     fit-margin-top="10"
     fit-margin-left="10"
     fit-margin-right="10"
     fit-margin-bottom="10"
     inkscape:window-width="2430"
     inkscape:window-height="1292"
     inkscape:window-x="65"
     inkscape:window-y="83"
     inkscape:window-maximized="0" />
  <metadata
     id="metadata4666">
    <rdf:RDF>
      <cc:Work
         rdf:about="">
        <dc:format>image/svg+xml</dc:format>
        <dc:type
           rdf:resource="http://purl.org/dc/dcmitype/StillImage" />
        <dc:title></dc:title>
      </cc:Work>
    </rdf:RDF>
  </metadata>
  <g
     inkscape:groupmode="layer"
     id="layer3"
     inkscape:label="shadow"
     transform="translate(-95.533007,-256.85729)"
     style="display:inline">
    <path
       inkscape:connector-curvature="0"
       id="path5241"
       d="m 182.85352,389.85742 c -14.77409,66.53711 -29.54818,133.07422 -44.32227,199.61133 42.80794,53.03516 85.61589,106.07031 128.42383,159.10547 68.1556,-0.40104 136.3112,-0.80208 204.4668,-1.20313 C 513.60156,693.83464 555.78125,640.29818 597.96094,586.76172 582.40299,520.4043 566.84505,454.04687 551.28711,387.68945 489.70833,358.47982 428.12956,329.27018 366.55078,300.06055 305.31836,329.99284 244.08594,359.92513 182.85352,389.85742 Z"
       style="fill:#ef4747;fill-opacity:0.625;stroke:none;stroke-width:10;stroke-linecap:butt;stroke-miterlimit:4;stroke-dasharray:none;stroke-dashoffset:0;stroke-opacity:1" />
    <path
       style="opacity:1;fill:#992929;fill-opacity:0.625;fill-rule:evenodd;stroke:none;stroke-width:1px;stroke-linecap:butt;stroke-linejoin:miter;stroke-opacity:1"
       d="M 239.28571,713.79075 495,357.36218 l 58.57143,30 L 600,588.79075 470.71429,750.21933 l -207.14286,0 z"
       id="path5250"
       inkscape:connector-curvature="0" />
    <path
       style="opacity:1;fill:#ffe3e3;fill-opacity:0.625;fill-rule:evenodd;stroke:none;stroke-width:1px;stroke-linecap:butt;stroke-linejoin:miter;stroke-opacity:1"
       d="M 179.28571,641.6479 412.14286,322.36218 386.42857,310.21932 157.14286,618.79075 177.85714,644.50504 Z"
       id="path5252"
       inkscape:connector-curvature="0" />
    <path
       inkscape:connector-curvature="0"
       id="path5254"
       d="m 145.36693,604.53622 229.32162,-302.6182 -5.00617,-3.05149 -229.28571,297.96483 3.03661,5.00616 z"
       style="opacity:1;fill:#ffe3e3;fill-opacity:0.625;fill-rule:evenodd;stroke:none;stroke-width:1px;stroke-linecap:butt;stroke-linejoin:miter;stroke-opacity:1"
       sodipodi:nodetypes="cccccc" />
  </g>
  <g
     inkscape:label="Layer 1"
     inkscape:groupmode="layer"
     id="layer1"
     style="display:inline;opacity:1"
     transform="translate(-95.533007,-256.85729)">
    <path
       style="fill:none;fill-opacity:1;stroke:#000000;stroke-width:10;stroke-linecap:butt;stroke-miterlimit:4;stroke-dasharray:none;stroke-dashoffset:0;stroke-opacity:1"
       d="M 472.39648,749.36523 C 514.97396,695.32422 557.55143,641.2832 600.12891,587.24219 584.42448,520.25977 568.72005,453.27734 553.01562,386.29492 490.85612,356.8099 428.69661,327.32487 366.53711,297.83984 c -61.80925,30.21485 -123.61849,60.42969 -185.42773,90.64454 -14.91342,67.16341 -29.82683,134.32682 -44.74024,201.49023 43.21159,53.53516 86.42318,107.07031 129.63477,160.60547 68.79752,-0.40495 137.59505,-0.8099 206.39257,-1.21485 z"
       id="path5213"
       inkscape:connector-curvature="0" />
    <path
       style="fill:none;fill-opacity:1;stroke:#000000;stroke-width:10;stroke-linecap:butt;stroke-miterlimit:4;stroke-dasharray:none;stroke-dashoffset:0;stroke-opacity:1"
       d="m 182.85352,389.85742 c -14.77409,66.53711 -29.54818,133.07422 -44.32227,199.61133 42.80794,53.03516 85.61589,106.07031 128.42383,159.10547 68.1556,-0.40104 136.3112,-0.80208 204.4668,-1.20313 C 513.60156,693.83464 555.78125,640.29818 597.96094,586.76172 582.40299,520.4043 566.84505,454.04687 551.28711,387.68945 489.70833,358.47982 428.12956,329.27018 366.55078,300.06055 305.31836,329.99284 244.08594,359.92513 182.85352,389.85742 Z"
       id="path5236"
       inkscape:connector-curvature="0" />
  </g>
  <g
     inkscape:groupmode="layer"
     id="layer4"
     inkscape:label="text"
     transform="translate(-95.533007,-256.85729)"
     style="display:inline">
    <text
       xml:space="preserve"
       style="font-style:normal;font-variant:normal;font-weight:normal;font-stretch:normal;font-size:229.487854px;line-height:125%;font-family:LKLUG;-inkscape-font-specification:LKLUG;letter-spacing:0px;word-spacing:0px;fill:#000000;fill-opacity:1;stroke:none;stroke-width:0.16776487;stroke-linecap:butt;stroke-linejoin:miter;stroke-miterlimit:4;stroke-dasharray:none;stroke-opacity:1"
       x="206.17471"
       y="653.88184"
       id="text5351"
       sodipodi:linespacing="125%"
       transform="scale(1.0850362,0.92162821)"><tspan
         sodipodi:role="line"
         x="206.17471"
         y="653.88184"
         id="tspan5353"><tspan
           x="206.17471"
           y="653.88184"
           style="font-style:normal;font-variant:normal;font-weight:normal;font-stretch:normal;font-family:FreeMono;-inkscape-font-specification:FreeMono;stroke-width:0.16776487;stroke-miterlimit:4;stroke-dasharray:none"
           id="tspan5355">LB</tspan></tspan></text>
  </g>
</svg>
