<?xml version="1.0" encoding="utf-8" standalone="no"?>
<!DOCTYPE svg PUBLIC "-//W3C//DTD SVG 1.1//EN"
  "http://www.w3.org/Graphics/SVG/1.1/DTD/svg11.dtd">
<!-- Created with matplotlib (https://matplotlib.org/) -->
<svg height="986.4pt" version="1.1" viewBox="0 0 1843.2 986.4" width="1843.2pt" xmlns="http://www.w3.org/2000/svg" xmlns:xlink="http://www.w3.org/1999/xlink">
 <defs>
  <style type="text/css">
*{stroke-linecap:butt;stroke-linejoin:round;}
  </style>
 </defs>
 <g id="figure_1">
  <g id="patch_1">
   <path d="M 0 986.4 
L 1843.2 986.4 
L 1843.2 0 
L 0 0 
z
" style="fill:#ffffff;"/>
  </g>
  <g id="axes_1">
   <g id="patch_2">
    <path d="M 230.4 877.896 
L 1658.88 877.896 
L 1658.88 118.368 
L 230.4 118.368 
z
" style="fill:#ffffff;"/>
   </g>
   <g id="matplotlib.axis_1">
    <g id="xtick_1">
     <g id="line2d_1">
      <defs>
       <path d="M 0 0 
L 0 12 
" id="mf9ff65e695" style="stroke:#000000;stroke-width:2.5;"/>
      </defs>
      <g>
       <use style="stroke:#000000;stroke-width:2.5;" x="295.330909" xlink:href="#mf9ff65e695" y="877.896"/>
      </g>
     </g>
     <g id="text_1">
      <!-- 0 -->
      <defs>
       <path d="M 31.78125 66.40625 
Q 24.171875 66.40625 20.328125 58.90625 
Q 16.5 51.421875 16.5 36.375 
Q 16.5 21.390625 20.328125 13.890625 
Q 24.171875 6.390625 31.78125 6.390625 
Q 39.453125 6.390625 43.28125 13.890625 
Q 47.125 21.390625 47.125 36.375 
Q 47.125 51.421875 43.28125 58.90625 
Q 39.453125 66.40625 31.78125 66.40625 
z
M 31.78125 74.21875 
Q 44.046875 74.21875 50.515625 64.515625 
Q 56.984375 54.828125 56.984375 36.375 
Q 56.984375 17.96875 50.515625 8.265625 
Q 44.046875 -1.421875 31.78125 -1.421875 
Q 19.53125 -1.421875 13.0625 8.265625 
Q 6.59375 17.96875 6.59375 36.375 
Q 6.59375 54.828125 13.0625 64.515625 
Q 19.53125 74.21875 31.78125 74.21875 
z
" id="DejaVuSans-48"/>
      </defs>
      <g transform="translate(288.332159 910.112562)scale(0.22 -0.22)">
       <use xlink:href="#DejaVuSans-48"/>
      </g>
     </g>
    </g>
    <g id="xtick_2">
     <g id="line2d_2">
      <g>
       <use style="stroke:#000000;stroke-width:2.5;" x="458.065017" xlink:href="#mf9ff65e695" y="877.896"/>
      </g>
     </g>
     <g id="text_2">
      <!-- 50 -->
      <defs>
       <path d="M 10.796875 72.90625 
L 49.515625 72.90625 
L 49.515625 64.59375 
L 19.828125 64.59375 
L 19.828125 46.734375 
Q 21.96875 47.46875 24.109375 47.828125 
Q 26.265625 48.1875 28.421875 48.1875 
Q 40.625 48.1875 47.75 41.5 
Q 54.890625 34.8125 54.890625 23.390625 
Q 54.890625 11.625 47.5625 5.09375 
Q 40.234375 -1.421875 26.90625 -1.421875 
Q 22.3125 -1.421875 17.546875 -0.640625 
Q 12.796875 0.140625 7.71875 1.703125 
L 7.71875 11.625 
Q 12.109375 9.234375 16.796875 8.0625 
Q 21.484375 6.890625 26.703125 6.890625 
Q 35.15625 6.890625 40.078125 11.328125 
Q 45.015625 15.765625 45.015625 23.390625 
Q 45.015625 31 40.078125 35.4375 
Q 35.15625 39.890625 26.703125 39.890625 
Q 22.75 39.890625 18.8125 39.015625 
Q 14.890625 38.140625 10.796875 36.28125 
z
" id="DejaVuSans-53"/>
      </defs>
      <g transform="translate(444.067517 910.112562)scale(0.22 -0.22)">
       <use xlink:href="#DejaVuSans-53"/>
       <use x="63.623047" xlink:href="#DejaVuSans-48"/>
      </g>
     </g>
    </g>
    <g id="xtick_3">
     <g id="line2d_3">
      <g>
       <use style="stroke:#000000;stroke-width:2.5;" x="620.799125" xlink:href="#mf9ff65e695" y="877.896"/>
      </g>
     </g>
     <g id="text_3">
      <!-- 100 -->
      <defs>
       <path d="M 12.40625 8.296875 
L 28.515625 8.296875 
L 28.515625 63.921875 
L 10.984375 60.40625 
L 10.984375 69.390625 
L 28.421875 72.90625 
L 38.28125 72.90625 
L 38.28125 8.296875 
L 54.390625 8.296875 
L 54.390625 0 
L 12.40625 0 
z
" id="DejaVuSans-49"/>
      </defs>
      <g transform="translate(599.802875 910.112562)scale(0.22 -0.22)">
       <use xlink:href="#DejaVuSans-49"/>
       <use x="63.623047" xlink:href="#DejaVuSans-48"/>
       <use x="127.246094" xlink:href="#DejaVuSans-48"/>
      </g>
     </g>
    </g>
    <g id="xtick_4">
     <g id="line2d_4">
      <g>
       <use style="stroke:#000000;stroke-width:2.5;" x="783.533233" xlink:href="#mf9ff65e695" y="877.896"/>
      </g>
     </g>
     <g id="text_4">
      <!-- 150 -->
      <g transform="translate(762.536983 910.112562)scale(0.22 -0.22)">
       <use xlink:href="#DejaVuSans-49"/>
       <use x="63.623047" xlink:href="#DejaVuSans-53"/>
       <use x="127.246094" xlink:href="#DejaVuSans-48"/>
      </g>
     </g>
    </g>
    <g id="xtick_5">
     <g id="line2d_5">
      <g>
       <use style="stroke:#000000;stroke-width:2.5;" x="946.267341" xlink:href="#mf9ff65e695" y="877.896"/>
      </g>
     </g>
     <g id="text_5">
      <!-- 200 -->
      <defs>
       <path d="M 19.1875 8.296875 
L 53.609375 8.296875 
L 53.609375 0 
L 7.328125 0 
L 7.328125 8.296875 
Q 12.9375 14.109375 22.625 23.890625 
Q 32.328125 33.6875 34.8125 36.53125 
Q 39.546875 41.84375 41.421875 45.53125 
Q 43.3125 49.21875 43.3125 52.78125 
Q 43.3125 58.59375 39.234375 62.25 
Q 35.15625 65.921875 28.609375 65.921875 
Q 23.96875 65.921875 18.8125 64.3125 
Q 13.671875 62.703125 7.8125 59.421875 
L 7.8125 69.390625 
Q 13.765625 71.78125 18.9375 73 
Q 24.125 74.21875 28.421875 74.21875 
Q 39.75 74.21875 46.484375 68.546875 
Q 53.21875 62.890625 53.21875 53.421875 
Q 53.21875 48.921875 51.53125 44.890625 
Q 49.859375 40.875 45.40625 35.40625 
Q 44.1875 33.984375 37.640625 27.21875 
Q 31.109375 20.453125 19.1875 8.296875 
z
" id="DejaVuSans-50"/>
      </defs>
      <g transform="translate(925.271091 910.112562)scale(0.22 -0.22)">
       <use xlink:href="#DejaVuSans-50"/>
       <use x="63.623047" xlink:href="#DejaVuSans-48"/>
       <use x="127.246094" xlink:href="#DejaVuSans-48"/>
      </g>
     </g>
    </g>
    <g id="xtick_6">
     <g id="line2d_6">
      <g>
       <use style="stroke:#000000;stroke-width:2.5;" x="1109.001449" xlink:href="#mf9ff65e695" y="877.896"/>
      </g>
     </g>
     <g id="text_6">
      <!-- 250 -->
      <g transform="translate(1088.005199 910.112562)scale(0.22 -0.22)">
       <use xlink:href="#DejaVuSans-50"/>
       <use x="63.623047" xlink:href="#DejaVuSans-53"/>
       <use x="127.246094" xlink:href="#DejaVuSans-48"/>
      </g>
     </g>
    </g>
    <g id="xtick_7">
     <g id="line2d_7">
      <g>
       <use style="stroke:#000000;stroke-width:2.5;" x="1271.735557" xlink:href="#mf9ff65e695" y="877.896"/>
      </g>
     </g>
     <g id="text_7">
      <!-- 300 -->
      <defs>
       <path d="M 40.578125 39.3125 
Q 47.65625 37.796875 51.625 33 
Q 55.609375 28.21875 55.609375 21.1875 
Q 55.609375 10.40625 48.1875 4.484375 
Q 40.765625 -1.421875 27.09375 -1.421875 
Q 22.515625 -1.421875 17.65625 -0.515625 
Q 12.796875 0.390625 7.625 2.203125 
L 7.625 11.71875 
Q 11.71875 9.328125 16.59375 8.109375 
Q 21.484375 6.890625 26.8125 6.890625 
Q 36.078125 6.890625 40.9375 10.546875 
Q 45.796875 14.203125 45.796875 21.1875 
Q 45.796875 27.640625 41.28125 31.265625 
Q 36.765625 34.90625 28.71875 34.90625 
L 20.21875 34.90625 
L 20.21875 43.015625 
L 29.109375 43.015625 
Q 36.375 43.015625 40.234375 45.921875 
Q 44.09375 48.828125 44.09375 54.296875 
Q 44.09375 59.90625 40.109375 62.90625 
Q 36.140625 65.921875 28.71875 65.921875 
Q 24.65625 65.921875 20.015625 65.03125 
Q 15.375 64.15625 9.8125 62.3125 
L 9.8125 71.09375 
Q 15.4375 72.65625 20.34375 73.4375 
Q 25.25 74.21875 29.59375 74.21875 
Q 40.828125 74.21875 47.359375 69.109375 
Q 53.90625 64.015625 53.90625 55.328125 
Q 53.90625 49.265625 50.4375 45.09375 
Q 46.96875 40.921875 40.578125 39.3125 
z
" id="DejaVuSans-51"/>
      </defs>
      <g transform="translate(1250.739307 910.112562)scale(0.22 -0.22)">
       <use xlink:href="#DejaVuSans-51"/>
       <use x="63.623047" xlink:href="#DejaVuSans-48"/>
       <use x="127.246094" xlink:href="#DejaVuSans-48"/>
      </g>
     </g>
    </g>
    <g id="xtick_8">
     <g id="line2d_8">
      <g>
       <use style="stroke:#000000;stroke-width:2.5;" x="1434.469665" xlink:href="#mf9ff65e695" y="877.896"/>
      </g>
     </g>
     <g id="text_8">
      <!-- 350 -->
      <g transform="translate(1413.473415 910.112562)scale(0.22 -0.22)">
       <use xlink:href="#DejaVuSans-51"/>
       <use x="63.623047" xlink:href="#DejaVuSans-53"/>
       <use x="127.246094" xlink:href="#DejaVuSans-48"/>
      </g>
     </g>
    </g>
    <g id="xtick_9">
     <g id="line2d_9">
      <g>
       <use style="stroke:#000000;stroke-width:2.5;" x="1597.203773" xlink:href="#mf9ff65e695" y="877.896"/>
      </g>
     </g>
     <g id="text_9">
      <!-- 400 -->
      <defs>
       <path d="M 37.796875 64.3125 
L 12.890625 25.390625 
L 37.796875 25.390625 
z
M 35.203125 72.90625 
L 47.609375 72.90625 
L 47.609375 25.390625 
L 58.015625 25.390625 
L 58.015625 17.1875 
L 47.609375 17.1875 
L 47.609375 0 
L 37.796875 0 
L 37.796875 17.1875 
L 4.890625 17.1875 
L 4.890625 26.703125 
z
" id="DejaVuSans-52"/>
      </defs>
      <g transform="translate(1576.207523 910.112562)scale(0.22 -0.22)">
       <use xlink:href="#DejaVuSans-52"/>
       <use x="63.623047" xlink:href="#DejaVuSans-48"/>
       <use x="127.246094" xlink:href="#DejaVuSans-48"/>
      </g>
     </g>
    </g>
    <g id="text_10">
     <!-- nb. of iterations -->
     <defs>
      <path d="M 54.890625 33.015625 
L 54.890625 0 
L 45.90625 0 
L 45.90625 32.71875 
Q 45.90625 40.484375 42.875 44.328125 
Q 39.84375 48.1875 33.796875 48.1875 
Q 26.515625 48.1875 22.3125 43.546875 
Q 18.109375 38.921875 18.109375 30.90625 
L 18.109375 0 
L 9.078125 0 
L 9.078125 54.6875 
L 18.109375 54.6875 
L 18.109375 46.1875 
Q 21.34375 51.125 25.703125 53.5625 
Q 30.078125 56 35.796875 56 
Q 45.21875 56 50.046875 50.171875 
Q 54.890625 44.34375 54.890625 33.015625 
z
" id="DejaVuSans-110"/>
      <path d="M 48.6875 27.296875 
Q 48.6875 37.203125 44.609375 42.84375 
Q 40.53125 48.484375 33.40625 48.484375 
Q 26.265625 48.484375 22.1875 42.84375 
Q 18.109375 37.203125 18.109375 27.296875 
Q 18.109375 17.390625 22.1875 11.75 
Q 26.265625 6.109375 33.40625 6.109375 
Q 40.53125 6.109375 44.609375 11.75 
Q 48.6875 17.390625 48.6875 27.296875 
z
M 18.109375 46.390625 
Q 20.953125 51.265625 25.265625 53.625 
Q 29.59375 56 35.59375 56 
Q 45.5625 56 51.78125 48.09375 
Q 58.015625 40.1875 58.015625 27.296875 
Q 58.015625 14.40625 51.78125 6.484375 
Q 45.5625 -1.421875 35.59375 -1.421875 
Q 29.59375 -1.421875 25.265625 0.953125 
Q 20.953125 3.328125 18.109375 8.203125 
L 18.109375 0 
L 9.078125 0 
L 9.078125 75.984375 
L 18.109375 75.984375 
z
" id="DejaVuSans-98"/>
      <path d="M 10.6875 12.40625 
L 21 12.40625 
L 21 0 
L 10.6875 0 
z
" id="DejaVuSans-46"/>
      <path id="DejaVuSans-32"/>
      <path d="M 30.609375 48.390625 
Q 23.390625 48.390625 19.1875 42.75 
Q 14.984375 37.109375 14.984375 27.296875 
Q 14.984375 17.484375 19.15625 11.84375 
Q 23.34375 6.203125 30.609375 6.203125 
Q 37.796875 6.203125 41.984375 11.859375 
Q 46.1875 17.53125 46.1875 27.296875 
Q 46.1875 37.015625 41.984375 42.703125 
Q 37.796875 48.390625 30.609375 48.390625 
z
M 30.609375 56 
Q 42.328125 56 49.015625 48.375 
Q 55.71875 40.765625 55.71875 27.296875 
Q 55.71875 13.875 49.015625 6.21875 
Q 42.328125 -1.421875 30.609375 -1.421875 
Q 18.84375 -1.421875 12.171875 6.21875 
Q 5.515625 13.875 5.515625 27.296875 
Q 5.515625 40.765625 12.171875 48.375 
Q 18.84375 56 30.609375 56 
z
" id="DejaVuSans-111"/>
      <path d="M 37.109375 75.984375 
L 37.109375 68.5 
L 28.515625 68.5 
Q 23.6875 68.5 21.796875 66.546875 
Q 19.921875 64.59375 19.921875 59.515625 
L 19.921875 54.6875 
L 34.71875 54.6875 
L 34.71875 47.703125 
L 19.921875 47.703125 
L 19.921875 0 
L 10.890625 0 
L 10.890625 47.703125 
L 2.296875 47.703125 
L 2.296875 54.6875 
L 10.890625 54.6875 
L 10.890625 58.5 
Q 10.890625 67.625 15.140625 71.796875 
Q 19.390625 75.984375 28.609375 75.984375 
z
" id="DejaVuSans-102"/>
      <path d="M 9.421875 54.6875 
L 18.40625 54.6875 
L 18.40625 0 
L 9.421875 0 
z
M 9.421875 75.984375 
L 18.40625 75.984375 
L 18.40625 64.59375 
L 9.421875 64.59375 
z
" id="DejaVuSans-105"/>
      <path d="M 18.3125 70.21875 
L 18.3125 54.6875 
L 36.8125 54.6875 
L 36.8125 47.703125 
L 18.3125 47.703125 
L 18.3125 18.015625 
Q 18.3125 11.328125 20.140625 9.421875 
Q 21.96875 7.515625 27.59375 7.515625 
L 36.8125 7.515625 
L 36.8125 0 
L 27.59375 0 
Q 17.1875 0 13.234375 3.875 
Q 9.28125 7.765625 9.28125 18.015625 
L 9.28125 47.703125 
L 2.6875 47.703125 
L 2.6875 54.6875 
L 9.28125 54.6875 
L 9.28125 70.21875 
z
" id="DejaVuSans-116"/>
      <path d="M 56.203125 29.59375 
L 56.203125 25.203125 
L 14.890625 25.203125 
Q 15.484375 15.921875 20.484375 11.0625 
Q 25.484375 6.203125 34.421875 6.203125 
Q 39.59375 6.203125 44.453125 7.46875 
Q 49.3125 8.734375 54.109375 11.28125 
L 54.109375 2.78125 
Q 49.265625 0.734375 44.1875 -0.34375 
Q 39.109375 -1.421875 33.890625 -1.421875 
Q 20.796875 -1.421875 13.15625 6.1875 
Q 5.515625 13.8125 5.515625 26.8125 
Q 5.515625 40.234375 12.765625 48.109375 
Q 20.015625 56 32.328125 56 
Q 43.359375 56 49.78125 48.890625 
Q 56.203125 41.796875 56.203125 29.59375 
z
M 47.21875 32.234375 
Q 47.125 39.59375 43.09375 43.984375 
Q 39.0625 48.390625 32.421875 48.390625 
Q 24.90625 48.390625 20.390625 44.140625 
Q 15.875 39.890625 15.1875 32.171875 
z
" id="DejaVuSans-101"/>
      <path d="M 41.109375 46.296875 
Q 39.59375 47.171875 37.8125 47.578125 
Q 36.03125 48 33.890625 48 
Q 26.265625 48 22.1875 43.046875 
Q 18.109375 38.09375 18.109375 28.8125 
L 18.109375 0 
L 9.078125 0 
L 9.078125 54.6875 
L 18.109375 54.6875 
L 18.109375 46.1875 
Q 20.953125 51.171875 25.484375 53.578125 
Q 30.03125 56 36.53125 56 
Q 37.453125 56 38.578125 55.875 
Q 39.703125 55.765625 41.0625 55.515625 
z
" id="DejaVuSans-114"/>
      <path d="M 34.28125 27.484375 
Q 23.390625 27.484375 19.1875 25 
Q 14.984375 22.515625 14.984375 16.5 
Q 14.984375 11.71875 18.140625 8.90625 
Q 21.296875 6.109375 26.703125 6.109375 
Q 34.1875 6.109375 38.703125 11.40625 
Q 43.21875 16.703125 43.21875 25.484375 
L 43.21875 27.484375 
z
M 52.203125 31.203125 
L 52.203125 0 
L 43.21875 0 
L 43.21875 8.296875 
Q 40.140625 3.328125 35.546875 0.953125 
Q 30.953125 -1.421875 24.3125 -1.421875 
Q 15.921875 -1.421875 10.953125 3.296875 
Q 6 8.015625 6 15.921875 
Q 6 25.140625 12.171875 29.828125 
Q 18.359375 34.515625 30.609375 34.515625 
L 43.21875 34.515625 
L 43.21875 35.40625 
Q 43.21875 41.609375 39.140625 45 
Q 35.0625 48.390625 27.6875 48.390625 
Q 23 48.390625 18.546875 47.265625 
Q 14.109375 46.140625 10.015625 43.890625 
L 10.015625 52.203125 
Q 14.9375 54.109375 19.578125 55.046875 
Q 24.21875 56 28.609375 56 
Q 40.484375 56 46.34375 49.84375 
Q 52.203125 43.703125 52.203125 31.203125 
z
" id="DejaVuSans-97"/>
      <path d="M 44.28125 53.078125 
L 44.28125 44.578125 
Q 40.484375 46.53125 36.375 47.5 
Q 32.28125 48.484375 27.875 48.484375 
Q 21.1875 48.484375 17.84375 46.4375 
Q 14.5 44.390625 14.5 40.28125 
Q 14.5 37.15625 16.890625 35.375 
Q 19.28125 33.59375 26.515625 31.984375 
L 29.59375 31.296875 
Q 39.15625 29.25 43.1875 25.515625 
Q 47.21875 21.78125 47.21875 15.09375 
Q 47.21875 7.46875 41.1875 3.015625 
Q 35.15625 -1.421875 24.609375 -1.421875 
Q 20.21875 -1.421875 15.453125 -0.5625 
Q 10.6875 0.296875 5.421875 2 
L 5.421875 11.28125 
Q 10.40625 8.6875 15.234375 7.390625 
Q 20.0625 6.109375 24.8125 6.109375 
Q 31.15625 6.109375 34.5625 8.28125 
Q 37.984375 10.453125 37.984375 14.40625 
Q 37.984375 18.0625 35.515625 20.015625 
Q 33.0625 21.96875 24.703125 23.78125 
L 21.578125 24.515625 
Q 13.234375 26.265625 9.515625 29.90625 
Q 5.8125 33.546875 5.8125 39.890625 
Q 5.8125 47.609375 11.28125 51.796875 
Q 16.75 56 26.8125 56 
Q 31.78125 56 36.171875 55.265625 
Q 40.578125 54.546875 44.28125 53.078125 
z
" id="DejaVuSans-115"/>
     </defs>
     <g transform="translate(849.463125 936.924125)scale(0.24 -0.24)">
      <use xlink:href="#DejaVuSans-110"/>
      <use x="63.378906" xlink:href="#DejaVuSans-98"/>
      <use x="126.855469" xlink:href="#DejaVuSans-46"/>
      <use x="158.642578" xlink:href="#DejaVuSans-32"/>
      <use x="190.429688" xlink:href="#DejaVuSans-111"/>
      <use x="251.611328" xlink:href="#DejaVuSans-102"/>
      <use x="286.816406" xlink:href="#DejaVuSans-32"/>
      <use x="318.603516" xlink:href="#DejaVuSans-105"/>
      <use x="346.386719" xlink:href="#DejaVuSans-116"/>
      <use x="385.595703" xlink:href="#DejaVuSans-101"/>
      <use x="447.119141" xlink:href="#DejaVuSans-114"/>
      <use x="488.232422" xlink:href="#DejaVuSans-97"/>
      <use x="549.511719" xlink:href="#DejaVuSans-116"/>
      <use x="588.720703" xlink:href="#DejaVuSans-105"/>
      <use x="616.503906" xlink:href="#DejaVuSans-111"/>
      <use x="677.685547" xlink:href="#DejaVuSans-110"/>
      <use x="741.064453" xlink:href="#DejaVuSans-115"/>
     </g>
    </g>
   </g>
   <g id="matplotlib.axis_2">
    <g id="ytick_1">
     <g id="line2d_10">
      <defs>
       <path d="M 0 0 
L -12 0 
" id="m83b59b3252" style="stroke:#000000;stroke-width:2.5;"/>
      </defs>
      <g>
       <use style="stroke:#000000;stroke-width:2.5;" x="230.4" xlink:href="#m83b59b3252" y="867.094658"/>
      </g>
     </g>
     <g id="text_11">
      <!-- 0 -->
      <g transform="translate(200.9025 875.45294)scale(0.22 -0.22)">
       <use xlink:href="#DejaVuSans-48"/>
      </g>
     </g>
    </g>
    <g id="ytick_2">
     <g id="line2d_11">
      <g>
       <use style="stroke:#000000;stroke-width:2.5;" x="230.4" xlink:href="#m83b59b3252" y="742.188107"/>
      </g>
     </g>
     <g id="text_12">
      <!-- 50 -->
      <g transform="translate(186.905 750.546388)scale(0.22 -0.22)">
       <use xlink:href="#DejaVuSans-53"/>
       <use x="63.623047" xlink:href="#DejaVuSans-48"/>
      </g>
     </g>
    </g>
    <g id="ytick_3">
     <g id="line2d_12">
      <g>
       <use style="stroke:#000000;stroke-width:2.5;" x="230.4" xlink:href="#m83b59b3252" y="617.281555"/>
      </g>
     </g>
     <g id="text_13">
      <!-- 100 -->
      <g transform="translate(172.9075 625.639836)scale(0.22 -0.22)">
       <use xlink:href="#DejaVuSans-49"/>
       <use x="63.623047" xlink:href="#DejaVuSans-48"/>
       <use x="127.246094" xlink:href="#DejaVuSans-48"/>
      </g>
     </g>
    </g>
    <g id="ytick_4">
     <g id="line2d_13">
      <g>
       <use style="stroke:#000000;stroke-width:2.5;" x="230.4" xlink:href="#m83b59b3252" y="492.375003"/>
      </g>
     </g>
     <g id="text_14">
      <!-- 150 -->
      <g transform="translate(172.9075 500.733285)scale(0.22 -0.22)">
       <use xlink:href="#DejaVuSans-49"/>
       <use x="63.623047" xlink:href="#DejaVuSans-53"/>
       <use x="127.246094" xlink:href="#DejaVuSans-48"/>
      </g>
     </g>
    </g>
    <g id="ytick_5">
     <g id="line2d_14">
      <g>
       <use style="stroke:#000000;stroke-width:2.5;" x="230.4" xlink:href="#m83b59b3252" y="367.468452"/>
      </g>
     </g>
     <g id="text_15">
      <!-- 200 -->
      <g transform="translate(172.9075 375.826733)scale(0.22 -0.22)">
       <use xlink:href="#DejaVuSans-50"/>
       <use x="63.623047" xlink:href="#DejaVuSans-48"/>
       <use x="127.246094" xlink:href="#DejaVuSans-48"/>
      </g>
     </g>
    </g>
    <g id="ytick_6">
     <g id="line2d_15">
      <g>
       <use style="stroke:#000000;stroke-width:2.5;" x="230.4" xlink:href="#m83b59b3252" y="242.5619"/>
      </g>
     </g>
     <g id="text_16">
      <!-- 250 -->
      <g transform="translate(172.9075 250.920181)scale(0.22 -0.22)">
       <use xlink:href="#DejaVuSans-50"/>
       <use x="63.623047" xlink:href="#DejaVuSans-53"/>
       <use x="127.246094" xlink:href="#DejaVuSans-48"/>
      </g>
     </g>
    </g>
    <g id="text_17">
     <!-- cost C -->
     <defs>
      <path d="M 48.78125 52.59375 
L 48.78125 44.1875 
Q 44.96875 46.296875 41.140625 47.34375 
Q 37.3125 48.390625 33.40625 48.390625 
Q 24.65625 48.390625 19.8125 42.84375 
Q 14.984375 37.3125 14.984375 27.296875 
Q 14.984375 17.28125 19.8125 11.734375 
Q 24.65625 6.203125 33.40625 6.203125 
Q 37.3125 6.203125 41.140625 7.25 
Q 44.96875 8.296875 48.78125 10.40625 
L 48.78125 2.09375 
Q 45.015625 0.34375 40.984375 -0.53125 
Q 36.96875 -1.421875 32.421875 -1.421875 
Q 20.0625 -1.421875 12.78125 6.34375 
Q 5.515625 14.109375 5.515625 27.296875 
Q 5.515625 40.671875 12.859375 48.328125 
Q 20.21875 56 33.015625 56 
Q 37.15625 56 41.109375 55.140625 
Q 45.0625 54.296875 48.78125 52.59375 
z
" id="DejaVuSans-99"/>
      <path d="M 64.40625 67.28125 
L 64.40625 56.890625 
Q 59.421875 61.53125 53.78125 63.8125 
Q 48.140625 66.109375 41.796875 66.109375 
Q 29.296875 66.109375 22.65625 58.46875 
Q 16.015625 50.828125 16.015625 36.375 
Q 16.015625 21.96875 22.65625 14.328125 
Q 29.296875 6.6875 41.796875 6.6875 
Q 48.140625 6.6875 53.78125 8.984375 
Q 59.421875 11.28125 64.40625 15.921875 
L 64.40625 5.609375 
Q 59.234375 2.09375 53.4375 0.328125 
Q 47.65625 -1.421875 41.21875 -1.421875 
Q 24.65625 -1.421875 15.125 8.703125 
Q 5.609375 18.84375 5.609375 36.375 
Q 5.609375 53.953125 15.125 64.078125 
Q 24.65625 74.21875 41.21875 74.21875 
Q 47.75 74.21875 53.53125 72.484375 
Q 59.328125 70.75 64.40625 67.28125 
z
" id="DejaVuSans-67"/>
     </defs>
     <g transform="translate(163.91625 535.221375)rotate(-90)scale(0.24 -0.24)">
      <use xlink:href="#DejaVuSans-99"/>
      <use x="54.980469" xlink:href="#DejaVuSans-111"/>
      <use x="116.162109" xlink:href="#DejaVuSans-115"/>
      <use x="168.261719" xlink:href="#DejaVuSans-116"/>
      <use x="207.470703" xlink:href="#DejaVuSans-32"/>
      <use x="239.257812" xlink:href="#DejaVuSans-67"/>
     </g>
    </g>
   </g>
   <g id="line2d_16">
    <path clip-path="url(#p0f6cf11e60)" d="M 295.330909 152.892 
L 461.319699 161.915839 
L 633.817854 171.069037 
L 809.57069 180.170333 
L 988.578209 189.217894 
L 1174.095092 198.368788 
L 1362.866658 207.455521 
L 1554.892905 216.477365 
L 1593.949091 218.285926 
L 1593.949091 218.285926 
" style="fill:none;stroke:#1f77b4;stroke-linecap:square;stroke-width:3;"/>
   </g>
   <g id="line2d_17">
    <path clip-path="url(#p0f6cf11e60)" d="M 295.330909 153.429114 
L 337.641777 162.617914 
L 379.952645 171.586801 
L 425.518195 181.01104 
L 471.083746 190.203395 
L 516.649296 199.174801 
L 565.469528 208.553479 
L 614.289761 217.702106 
L 663.109993 226.631727 
L 715.184908 235.926887 
L 767.259822 244.996306 
L 822.589419 254.397392 
L 877.919016 263.568084 
L 933.248612 272.519661 
L 991.832891 281.770609 
L 1050.41717 290.799182 
L 1112.256131 300.099884 
L 1174.095092 309.176327 
L 1239.188735 318.499985 
L 1304.282379 327.59858 
L 1372.630704 336.921507 
L 1440.979029 346.019358 
L 1512.582037 355.320383 
L 1584.185044 364.396846 
L 1593.949091 365.617716 
L 1593.949091 365.617716 
" style="fill:none;stroke:#ff7f0e;stroke-linecap:square;stroke-width:3;"/>
   </g>
   <g id="line2d_18">
    <path clip-path="url(#p0f6cf11e60)" d="M 295.330909 154.50219 
L 314.859002 165.062275 
L 334.387095 175.332446 
L 353.915188 185.327721 
L 373.443281 195.062116 
L 392.971374 204.548722 
L 412.499467 213.799766 
L 432.02756 222.826671 
L 454.810335 233.088982 
L 477.59311 243.076489 
L 500.375885 252.80378 
L 523.15866 262.284354 
L 545.941435 271.530713 
L 568.724211 280.554438 
L 594.761668 290.608394 
L 620.799125 300.400359 
L 646.836582 309.943924 
L 672.87404 319.251585 
L 698.911497 328.334844 
L 724.948954 337.2043 
L 754.241094 346.939016 
L 783.533233 356.428277 
L 812.825373 365.683796 
L 842.117512 374.716313 
L 871.409651 383.535697 
L 903.956473 393.096059 
L 936.503295 402.415919 
L 969.050116 411.505747 
L 1001.596938 420.375153 
L 1037.398442 429.887442 
L 1073.199945 439.154519 
L 1109.001449 448.186308 
L 1144.802953 456.991949 
L 1180.604457 465.579882 
L 1219.660643 474.709413 
L 1258.716828 483.598555 
L 1297.773014 492.256026 
L 1336.8292 500.689932 
L 1375.885386 508.907839 
L 1418.196254 517.575032 
L 1460.507122 526.005481 
L 1502.81799 534.207108 
L 1545.128859 542.18737 
L 1587.439727 549.953313 
L 1593.949091 551.129481 
L 1593.949091 551.129481 
" style="fill:none;stroke:#2ca02c;stroke-linecap:square;stroke-width:3;"/>
   </g>
   <g id="line2d_19">
    <path clip-path="url(#p0f6cf11e60)" d="M 295.330909 159.844522 
L 301.840273 173.710236 
L 308.349638 187.076623 
L 314.859002 199.977747 
L 321.368366 212.444668 
L 327.877731 224.505726 
L 334.387095 236.186791 
L 340.896459 247.511497 
L 347.405824 258.501443 
L 353.915188 269.176387 
L 360.424552 279.554416 
L 370.188599 294.600605 
L 379.952645 309.06593 
L 389.716692 322.994588 
L 399.480738 336.425544 
L 409.244785 349.393233 
L 419.008831 361.928165 
L 428.772878 374.057445 
L 438.536924 385.805228 
L 448.300971 397.193101 
L 458.065017 408.240425 
L 467.829064 418.964619 
L 477.59311 429.381414 
L 487.357157 439.505066 
L 497.121203 449.348545 
L 506.885249 458.923694 
L 516.649296 468.24137 
L 526.413342 477.311565 
L 536.177389 486.143506 
L 545.941435 494.74575 
L 558.960164 505.87179 
L 571.978893 516.621026 
L 584.997621 527.009481 
L 598.01635 537.051959 
L 611.035079 546.762204 
L 624.053807 556.153043 
L 637.072536 565.236499 
L 650.091265 574.023888 
L 663.109993 582.525898 
L 676.128722 590.752659 
L 689.14745 598.713796 
L 702.166179 606.418481 
L 715.184908 613.87547 
L 728.203636 621.093139 
L 741.222365 628.079517 
L 754.241094 634.842307 
L 767.259822 641.388909 
L 780.278551 647.726442 
L 793.29728 653.861761 
L 809.57069 661.256583 
L 825.844101 668.358124 
L 842.117512 675.178223 
L 858.390923 681.728208 
L 874.664334 688.018924 
L 890.937744 694.060763 
L 907.211155 699.863681 
L 923.484566 705.437223 
L 939.757977 710.790543 
L 956.031388 715.932421 
L 972.304798 720.871279 
L 991.832891 726.541276 
L 1011.360984 731.943888 
L 1030.889077 737.091818 
L 1050.41717 741.997158 
L 1069.945263 746.67142 
L 1089.473356 751.125566 
L 1109.001449 755.370032 
L 1128.529542 759.414756 
L 1151.312317 763.893752 
L 1174.095092 768.127996 
L 1196.877867 772.130953 
L 1219.660643 775.915346 
L 1242.443418 779.493191 
L 1268.480875 783.343774 
L 1294.518332 786.955336 
L 1320.555789 790.342821 
L 1346.593247 793.520235 
L 1375.885386 796.860036 
L 1405.177526 799.968004 
L 1434.469665 802.860358 
L 1467.016487 805.839512 
L 1499.563308 808.590228 
L 1532.11013 811.130175 
L 1567.911634 813.70009 
L 1593.949091 815.43275 
L 1593.949091 815.43275 
" style="fill:none;stroke:#d62728;stroke-linecap:square;stroke-width:3;"/>
   </g>
   <g id="line2d_20">
    <path clip-path="url(#p0f6cf11e60)" d="M 295.330909 170.413949 
L 298.585591 187.299503 
L 301.840273 203.440348 
L 305.094956 218.899425 
L 308.349638 233.732725 
L 311.60432 247.990104 
L 314.859002 261.715999 
L 321.368366 287.727717 
L 327.877731 312.037253 
L 334.387095 334.860725 
L 340.896459 356.372606 
L 347.405824 376.714749 
L 353.915188 396.003406 
L 360.424552 414.334701 
L 366.933917 431.788885 
L 373.443281 448.433651 
L 379.952645 464.326721 
L 386.46201 479.517862 
L 392.971374 494.050465 
L 399.480738 507.962776 
L 405.990103 521.288859 
L 412.499467 534.059357 
L 419.008831 546.302082 
L 425.518195 558.04249 
L 432.02756 569.30405 
L 438.536924 580.108538 
L 445.046288 590.476273 
L 451.555653 600.426304 
L 458.065017 609.976563 
L 464.574381 619.143988 
L 471.083746 627.944624 
L 477.59311 636.393706 
L 484.102474 644.505729 
L 490.611839 652.294506 
L 497.121203 659.773218 
L 503.630567 666.954454 
L 510.139932 673.850254 
L 516.649296 680.472136 
L 523.15866 686.831129 
L 529.668025 692.937796 
L 536.177389 698.80226 
L 542.686753 704.434226 
L 549.196118 709.842996 
L 555.705482 715.037494 
L 562.214846 720.02628 
L 568.724211 724.817565 
L 575.233575 729.419228 
L 584.997621 735.982635 
L 594.761668 742.160577 
L 604.525714 747.975846 
L 614.289761 753.449879 
L 624.053807 758.602835 
L 633.817854 763.453673 
L 643.5819 768.020226 
L 653.345947 772.319268 
L 663.109993 776.366579 
L 672.87404 780.177001 
L 682.638086 783.764497 
L 692.402133 787.142203 
L 702.166179 790.322477 
L 711.930226 793.316946 
L 724.948954 797.039352 
L 737.967683 800.474965 
L 750.986411 803.646057 
L 764.00514 806.57316 
L 777.023869 809.275207 
L 790.042597 811.769655 
L 803.061326 814.072599 
L 819.334737 816.70448 
L 835.608148 819.086719 
L 851.881558 821.243243 
L 868.154969 823.195673 
L 887.683062 825.296565 
L 907.211155 827.161833 
L 926.739248 828.818253 
L 949.522023 830.518272 
L 972.304798 831.999255 
L 998.342256 833.460236 
L 1024.379713 834.709339 
L 1053.671852 835.900187 
L 1086.218674 837.00084 
L 1122.020178 837.989868 
L 1164.331046 838.919598 
L 1209.896596 839.695411 
L 1265.226193 840.402102 
L 1330.319836 840.996569 
L 1411.68689 841.49846 
L 1515.836719 841.901411 
L 1593.949091 842.098606 
L 1593.949091 842.098606 
" style="fill:none;stroke:#9467bd;stroke-linecap:square;stroke-width:3;"/>
   </g>
   <g id="line2d_21">
    <path clip-path="url(#p0f6cf11e60)" d="M 295.330909 220.956347 
L 298.585591 277.872887 
L 301.840273 326.898375 
L 305.094956 370.1073 
L 308.349638 408.788263 
L 311.60432 443.773049 
L 314.859002 475.625052 
L 318.113684 504.7474 
L 321.368366 531.445227 
L 324.623049 555.961724 
L 327.877731 578.499199 
L 331.132413 599.231541 
L 334.387095 618.311737 
L 337.641777 635.876548 
L 340.896459 652.049517 
L 344.151141 666.943006 
L 347.405824 680.659652 
L 350.660506 693.293469 
L 353.915188 704.930719 
L 357.16987 715.65064 
L 360.424552 725.526071 
L 363.679234 734.623998 
L 366.933917 743.006044 
L 370.188599 750.728908 
L 373.443281 757.84477 
L 376.697963 764.401651 
L 379.952645 770.443753 
L 383.207327 776.011762 
L 386.46201 781.143134 
L 389.716692 785.872348 
L 392.971374 790.231149 
L 396.226056 794.248761 
L 399.480738 797.952094 
L 402.73542 801.365925 
L 405.990103 804.513066 
L 409.244785 807.414526 
L 412.499467 810.08965 
L 415.754149 812.556252 
L 419.008831 814.830738 
L 422.263513 816.928219 
L 425.518195 818.862608 
L 428.772878 820.646724 
L 432.02756 822.292369 
L 438.536924 825.210885 
L 445.046288 827.695247 
L 451.555653 829.810872 
L 458.065017 831.613275 
L 464.574381 833.149572 
L 471.083746 834.459758 
L 477.59311 835.577786 
L 487.357157 836.95638 
L 497.121203 838.046094 
L 506.885249 838.909249 
L 519.903978 839.790448 
L 532.922707 840.441831 
L 549.196118 841.027315 
L 568.724211 841.5036 
L 594.761668 841.903635 
L 630.563172 842.219394 
L 689.14745 842.489725 
L 806.316008 842.763766 
L 1024.379713 843.029382 
L 1382.394751 843.219397 
L 1593.949091 843.272454 
L 1593.949091 843.272454 
" style="fill:none;stroke:#8c564b;stroke-linecap:square;stroke-width:3;"/>
   </g>
   <g id="line2d_22">
    <path clip-path="url(#p0f6cf11e60)" d="M 295.330909 310.517446 
L 298.585591 416.04193 
L 301.840273 497.964395 
L 305.094956 563.650531 
L 308.349638 616.6601 
L 311.60432 659.502785 
L 314.859002 694.147045 
L 318.113684 722.171698 
L 321.368366 744.848881 
L 324.623049 763.204821 
L 327.877731 778.067792 
L 331.132413 790.106544 
L 334.387095 799.861198 
L 337.641777 807.768121 
L 340.896459 814.179951 
L 344.151141 819.381739 
L 347.405824 823.603957 
L 350.660506 827.032996 
L 353.915188 829.819628 
L 357.16987 832.085839 
L 360.424552 833.930345 
L 363.679234 835.433046 
L 366.933917 836.658626 
L 370.188599 837.659461 
L 373.443281 838.477965 
L 376.697963 839.148497 
L 383.207327 840.151701 
L 389.716692 840.834225 
L 396.226056 841.304587 
L 405.990103 841.761521 
L 419.008831 842.112375 
L 438.536924 842.391831 
L 477.59311 842.672264 
L 552.4508 842.954126 
L 672.87404 843.168048 
L 894.192427 843.305165 
L 1447.488394 843.368893 
L 1593.949091 843.372 
L 1593.949091 843.372 
" style="fill:none;stroke:#e377c2;stroke-linecap:square;stroke-width:3;"/>
   </g>
   <g id="patch_3">
    <path d="M 230.4 877.896 
L 230.4 118.368 
" style="fill:none;stroke:#000000;stroke-linecap:square;stroke-linejoin:miter;stroke-width:2.5;"/>
   </g>
   <g id="patch_4">
    <path d="M 1658.88 877.896 
L 1658.88 118.368 
" style="fill:none;stroke:#000000;stroke-linecap:square;stroke-linejoin:miter;stroke-width:2.5;"/>
   </g>
   <g id="patch_5">
    <path d="M 230.4 877.896 
L 1658.88 877.896 
" style="fill:none;stroke:#000000;stroke-linecap:square;stroke-linejoin:miter;stroke-width:2.5;"/>
   </g>
   <g id="patch_6">
    <path d="M 230.4 118.368 
L 1658.88 118.368 
" style="fill:none;stroke:#000000;stroke-linecap:square;stroke-linejoin:miter;stroke-width:2.5;"/>
   </g>
   <g id="text_18">
    <!-- Learning curve depending on learning rate alpha -->
    <defs>
     <path d="M 9.8125 72.90625 
L 19.671875 72.90625 
L 19.671875 8.296875 
L 55.171875 8.296875 
L 55.171875 0 
L 9.8125 0 
z
" id="DejaVuSans-76"/>
     <path d="M 45.40625 27.984375 
Q 45.40625 37.75 41.375 43.109375 
Q 37.359375 48.484375 30.078125 48.484375 
Q 22.859375 48.484375 18.828125 43.109375 
Q 14.796875 37.75 14.796875 27.984375 
Q 14.796875 18.265625 18.828125 12.890625 
Q 22.859375 7.515625 30.078125 7.515625 
Q 37.359375 7.515625 41.375 12.890625 
Q 45.40625 18.265625 45.40625 27.984375 
z
M 54.390625 6.78125 
Q 54.390625 -7.171875 48.1875 -13.984375 
Q 42 -20.796875 29.203125 -20.796875 
Q 24.46875 -20.796875 20.265625 -20.09375 
Q 16.0625 -19.390625 12.109375 -17.921875 
L 12.109375 -9.1875 
Q 16.0625 -11.328125 19.921875 -12.34375 
Q 23.78125 -13.375 27.78125 -13.375 
Q 36.625 -13.375 41.015625 -8.765625 
Q 45.40625 -4.15625 45.40625 5.171875 
L 45.40625 9.625 
Q 42.625 4.78125 38.28125 2.390625 
Q 33.9375 0 27.875 0 
Q 17.828125 0 11.671875 7.65625 
Q 5.515625 15.328125 5.515625 27.984375 
Q 5.515625 40.671875 11.671875 48.328125 
Q 17.828125 56 27.875 56 
Q 33.9375 56 38.28125 53.609375 
Q 42.625 51.21875 45.40625 46.390625 
L 45.40625 54.6875 
L 54.390625 54.6875 
z
" id="DejaVuSans-103"/>
     <path d="M 8.5 21.578125 
L 8.5 54.6875 
L 17.484375 54.6875 
L 17.484375 21.921875 
Q 17.484375 14.15625 20.5 10.265625 
Q 23.53125 6.390625 29.59375 6.390625 
Q 36.859375 6.390625 41.078125 11.03125 
Q 45.3125 15.671875 45.3125 23.6875 
L 45.3125 54.6875 
L 54.296875 54.6875 
L 54.296875 0 
L 45.3125 0 
L 45.3125 8.40625 
Q 42.046875 3.421875 37.71875 1 
Q 33.40625 -1.421875 27.6875 -1.421875 
Q 18.265625 -1.421875 13.375 4.4375 
Q 8.5 10.296875 8.5 21.578125 
z
M 31.109375 56 
z
" id="DejaVuSans-117"/>
     <path d="M 2.984375 54.6875 
L 12.5 54.6875 
L 29.59375 8.796875 
L 46.6875 54.6875 
L 56.203125 54.6875 
L 35.6875 0 
L 23.484375 0 
z
" id="DejaVuSans-118"/>
     <path d="M 45.40625 46.390625 
L 45.40625 75.984375 
L 54.390625 75.984375 
L 54.390625 0 
L 45.40625 0 
L 45.40625 8.203125 
Q 42.578125 3.328125 38.25 0.953125 
Q 33.9375 -1.421875 27.875 -1.421875 
Q 17.96875 -1.421875 11.734375 6.484375 
Q 5.515625 14.40625 5.515625 27.296875 
Q 5.515625 40.1875 11.734375 48.09375 
Q 17.96875 56 27.875 56 
Q 33.9375 56 38.25 53.625 
Q 42.578125 51.265625 45.40625 46.390625 
z
M 14.796875 27.296875 
Q 14.796875 17.390625 18.875 11.75 
Q 22.953125 6.109375 30.078125 6.109375 
Q 37.203125 6.109375 41.296875 11.75 
Q 45.40625 17.390625 45.40625 27.296875 
Q 45.40625 37.203125 41.296875 42.84375 
Q 37.203125 48.484375 30.078125 48.484375 
Q 22.953125 48.484375 18.875 42.84375 
Q 14.796875 37.203125 14.796875 27.296875 
z
" id="DejaVuSans-100"/>
     <path d="M 18.109375 8.203125 
L 18.109375 -20.796875 
L 9.078125 -20.796875 
L 9.078125 54.6875 
L 18.109375 54.6875 
L 18.109375 46.390625 
Q 20.953125 51.265625 25.265625 53.625 
Q 29.59375 56 35.59375 56 
Q 45.5625 56 51.78125 48.09375 
Q 58.015625 40.1875 58.015625 27.296875 
Q 58.015625 14.40625 51.78125 6.484375 
Q 45.5625 -1.421875 35.59375 -1.421875 
Q 29.59375 -1.421875 25.265625 0.953125 
Q 20.953125 3.328125 18.109375 8.203125 
z
M 48.6875 27.296875 
Q 48.6875 37.203125 44.609375 42.84375 
Q 40.53125 48.484375 33.40625 48.484375 
Q 26.265625 48.484375 22.1875 42.84375 
Q 18.109375 37.203125 18.109375 27.296875 
Q 18.109375 17.390625 22.1875 11.75 
Q 26.265625 6.109375 33.40625 6.109375 
Q 40.53125 6.109375 44.609375 11.75 
Q 48.6875 17.390625 48.6875 27.296875 
z
" id="DejaVuSans-112"/>
     <path d="M 9.421875 75.984375 
L 18.40625 75.984375 
L 18.40625 0 
L 9.421875 0 
z
" id="DejaVuSans-108"/>
     <path d="M 54.890625 33.015625 
L 54.890625 0 
L 45.90625 0 
L 45.90625 32.71875 
Q 45.90625 40.484375 42.875 44.328125 
Q 39.84375 48.1875 33.796875 48.1875 
Q 26.515625 48.1875 22.3125 43.546875 
Q 18.109375 38.921875 18.109375 30.90625 
L 18.109375 0 
L 9.078125 0 
L 9.078125 75.984375 
L 18.109375 75.984375 
L 18.109375 46.1875 
Q 21.34375 51.125 25.703125 53.5625 
Q 30.078125 56 35.796875 56 
Q 45.21875 56 50.046875 50.171875 
Q 54.890625 44.34375 54.890625 33.015625 
z
" id="DejaVuSans-104"/>
    </defs>
    <g transform="translate(650.085 112.368)scale(0.24 -0.24)">
     <use xlink:href="#DejaVuSans-76"/>
     <use x="55.697266" xlink:href="#DejaVuSans-101"/>
     <use x="117.220703" xlink:href="#DejaVuSans-97"/>
     <use x="178.5" xlink:href="#DejaVuSans-114"/>
     <use x="219.597656" xlink:href="#DejaVuSans-110"/>
     <use x="282.976562" xlink:href="#DejaVuSans-105"/>
     <use x="310.759766" xlink:href="#DejaVuSans-110"/>
     <use x="374.138672" xlink:href="#DejaVuSans-103"/>
     <use x="437.615234" xlink:href="#DejaVuSans-32"/>
     <use x="469.402344" xlink:href="#DejaVuSans-99"/>
     <use x="524.382812" xlink:href="#DejaVuSans-117"/>
     <use x="587.761719" xlink:href="#DejaVuSans-114"/>
     <use x="628.875" xlink:href="#DejaVuSans-118"/>
     <use x="688.054688" xlink:href="#DejaVuSans-101"/>
     <use x="749.578125" xlink:href="#DejaVuSans-32"/>
     <use x="781.365234" xlink:href="#DejaVuSans-100"/>
     <use x="844.841797" xlink:href="#DejaVuSans-101"/>
     <use x="906.365234" xlink:href="#DejaVuSans-112"/>
     <use x="969.841797" xlink:href="#DejaVuSans-101"/>
     <use x="1031.365234" xlink:href="#DejaVuSans-110"/>
     <use x="1094.744141" xlink:href="#DejaVuSans-100"/>
     <use x="1158.220703" xlink:href="#DejaVuSans-105"/>
     <use x="1186.003906" xlink:href="#DejaVuSans-110"/>
     <use x="1249.382812" xlink:href="#DejaVuSans-103"/>
     <use x="1312.859375" xlink:href="#DejaVuSans-32"/>
     <use x="1344.646484" xlink:href="#DejaVuSans-111"/>
     <use x="1405.828125" xlink:href="#DejaVuSans-110"/>
     <use x="1469.207031" xlink:href="#DejaVuSans-32"/>
     <use x="1500.994141" xlink:href="#DejaVuSans-108"/>
     <use x="1528.777344" xlink:href="#DejaVuSans-101"/>
     <use x="1590.300781" xlink:href="#DejaVuSans-97"/>
     <use x="1651.580078" xlink:href="#DejaVuSans-114"/>
     <use x="1692.677734" xlink:href="#DejaVuSans-110"/>
     <use x="1756.056641" xlink:href="#DejaVuSans-105"/>
     <use x="1783.839844" xlink:href="#DejaVuSans-110"/>
     <use x="1847.21875" xlink:href="#DejaVuSans-103"/>
     <use x="1910.695312" xlink:href="#DejaVuSans-32"/>
     <use x="1942.482422" xlink:href="#DejaVuSans-114"/>
     <use x="1983.595703" xlink:href="#DejaVuSans-97"/>
     <use x="2044.875" xlink:href="#DejaVuSans-116"/>
     <use x="2084.083984" xlink:href="#DejaVuSans-101"/>
     <use x="2145.607422" xlink:href="#DejaVuSans-32"/>
     <use x="2177.394531" xlink:href="#DejaVuSans-97"/>
     <use x="2238.673828" xlink:href="#DejaVuSans-108"/>
     <use x="2266.457031" xlink:href="#DejaVuSans-112"/>
     <use x="2329.933594" xlink:href="#DejaVuSans-104"/>
     <use x="2393.3125" xlink:href="#DejaVuSans-97"/>
    </g>
   </g>
   <g id="legend_1">
    <g id="patch_7">
     <path d="M 1496.100625 396.238625 
L 1643.48 396.238625 
Q 1647.88 396.238625 1647.88 391.838625 
L 1647.88 133.768 
Q 1647.88 129.368 1643.48 129.368 
L 1496.100625 129.368 
Q 1491.700625 129.368 1491.700625 133.768 
L 1491.700625 391.838625 
Q 1491.700625 396.238625 1496.100625 396.238625 
z
" style="fill:#ffffff;opacity:0.8;stroke:#cccccc;stroke-linejoin:miter;stroke-width:2;"/>
    </g>
    <g id="text_19">
     <!-- alpha: -->
     <defs>
      <path d="M 11.71875 12.40625 
L 22.015625 12.40625 
L 22.015625 0 
L 11.71875 0 
z
M 11.71875 51.703125 
L 22.015625 51.703125 
L 22.015625 39.3125 
L 11.71875 39.3125 
z
" id="DejaVuSans-58"/>
     </defs>
     <g transform="translate(1532.483438 156.40425)scale(0.24 -0.24)">
      <use xlink:href="#DejaVuSans-97"/>
      <use x="61.279297" xlink:href="#DejaVuSans-108"/>
      <use x="89.0625" xlink:href="#DejaVuSans-112"/>
      <use x="152.539062" xlink:href="#DejaVuSans-104"/>
      <use x="215.917969" xlink:href="#DejaVuSans-97"/>
      <use x="277.197266" xlink:href="#DejaVuSans-58"/>
     </g>
    </g>
    <g id="line2d_23">
     <path d="M 1500.500625 181.412062 
L 1544.500625 181.412062 
" style="fill:none;stroke:#1f77b4;stroke-linecap:square;stroke-width:3;"/>
    </g>
    <g id="line2d_24"/>
    <g id="text_20">
     <!-- 0.0001 -->
     <g transform="translate(1562.100625 189.112062)scale(0.22 -0.22)">
      <use xlink:href="#DejaVuSans-48"/>
      <use x="63.623047" xlink:href="#DejaVuSans-46"/>
      <use x="95.410156" xlink:href="#DejaVuSans-48"/>
      <use x="159.033203" xlink:href="#DejaVuSans-48"/>
      <use x="222.65625" xlink:href="#DejaVuSans-48"/>
      <use x="286.279297" xlink:href="#DejaVuSans-49"/>
     </g>
    </g>
    <g id="line2d_25">
     <path d="M 1500.500625 213.703937 
L 1544.500625 213.703937 
" style="fill:none;stroke:#ff7f0e;stroke-linecap:square;stroke-width:3;"/>
    </g>
    <g id="line2d_26"/>
    <g id="text_21">
     <!-- 0.0004 -->
     <g transform="translate(1562.100625 221.403937)scale(0.22 -0.22)">
      <use xlink:href="#DejaVuSans-48"/>
      <use x="63.623047" xlink:href="#DejaVuSans-46"/>
      <use x="95.410156" xlink:href="#DejaVuSans-48"/>
      <use x="159.033203" xlink:href="#DejaVuSans-48"/>
      <use x="222.65625" xlink:href="#DejaVuSans-48"/>
      <use x="286.279297" xlink:href="#DejaVuSans-52"/>
     </g>
    </g>
    <g id="line2d_27">
     <path d="M 1500.500625 245.995812 
L 1544.500625 245.995812 
" style="fill:none;stroke:#2ca02c;stroke-linecap:square;stroke-width:3;"/>
    </g>
    <g id="line2d_28"/>
    <g id="text_22">
     <!-- 0.001 -->
     <g transform="translate(1562.100625 253.695812)scale(0.22 -0.22)">
      <use xlink:href="#DejaVuSans-48"/>
      <use x="63.623047" xlink:href="#DejaVuSans-46"/>
      <use x="95.410156" xlink:href="#DejaVuSans-48"/>
      <use x="159.033203" xlink:href="#DejaVuSans-48"/>
      <use x="222.65625" xlink:href="#DejaVuSans-49"/>
     </g>
    </g>
    <g id="line2d_29">
     <path d="M 1500.500625 278.287688 
L 1544.500625 278.287688 
" style="fill:none;stroke:#d62728;stroke-linecap:square;stroke-width:3;"/>
    </g>
    <g id="line2d_30"/>
    <g id="text_23">
     <!-- 0.004 -->
     <g transform="translate(1562.100625 285.987687)scale(0.22 -0.22)">
      <use xlink:href="#DejaVuSans-48"/>
      <use x="63.623047" xlink:href="#DejaVuSans-46"/>
      <use x="95.410156" xlink:href="#DejaVuSans-48"/>
      <use x="159.033203" xlink:href="#DejaVuSans-48"/>
      <use x="222.65625" xlink:href="#DejaVuSans-52"/>
     </g>
    </g>
    <g id="line2d_31">
     <path d="M 1500.500625 310.579563 
L 1544.500625 310.579563 
" style="fill:none;stroke:#9467bd;stroke-linecap:square;stroke-width:3;"/>
    </g>
    <g id="line2d_32"/>
    <g id="text_24">
     <!-- 0.01 -->
     <g transform="translate(1562.100625 318.279562)scale(0.22 -0.22)">
      <use xlink:href="#DejaVuSans-48"/>
      <use x="63.623047" xlink:href="#DejaVuSans-46"/>
      <use x="95.410156" xlink:href="#DejaVuSans-48"/>
      <use x="159.033203" xlink:href="#DejaVuSans-49"/>
     </g>
    </g>
    <g id="line2d_33">
     <path d="M 1500.500625 342.871438 
L 1544.500625 342.871438 
" style="fill:none;stroke:#8c564b;stroke-linecap:square;stroke-width:3;"/>
    </g>
    <g id="line2d_34"/>
    <g id="text_25">
     <!-- 0.04 -->
     <g transform="translate(1562.100625 350.571438)scale(0.22 -0.22)">
      <use xlink:href="#DejaVuSans-48"/>
      <use x="63.623047" xlink:href="#DejaVuSans-46"/>
      <use x="95.410156" xlink:href="#DejaVuSans-48"/>
      <use x="159.033203" xlink:href="#DejaVuSans-52"/>
     </g>
    </g>
    <g id="line2d_35">
     <path d="M 1500.500625 375.163313 
L 1544.500625 375.163313 
" style="fill:none;stroke:#e377c2;stroke-linecap:square;stroke-width:3;"/>
    </g>
    <g id="line2d_36"/>
    <g id="text_26">
     <!-- 0.1 -->
     <g transform="translate(1562.100625 382.863313)scale(0.22 -0.22)">
      <use xlink:href="#DejaVuSans-48"/>
      <use x="63.623047" xlink:href="#DejaVuSans-46"/>
      <use x="95.410156" xlink:href="#DejaVuSans-49"/>
     </g>
    </g>
   </g>
  </g>
 </g>
 <defs>
  <clipPath id="p0f6cf11e60">
   <rect height="759.528" width="1428.48" x="230.4" y="118.368"/>
  </clipPath>
 </defs>
</svg>
